<svg width="12" height="19" viewBox="0 0 12 19" fill="none" xmlns="http://www.w3.org/2000/svg">
<path d="M9.10845 18.5999L0.683447 10.1999C0.583447 10.0999 0.51278 9.99157 0.471447 9.8749C0.429447 9.75824 0.408447 9.63324 0.408447 9.4999C0.408447 9.36657 0.429447 9.24157 0.471447 9.1249C0.51278 9.00824 0.583447 8.8999 0.683447 8.7999L9.10845 0.374902C9.34178 0.141569 9.63345 0.0249023 9.98345 0.0249023C10.3334 0.0249023 10.6334 0.149902 10.8834 0.399902C11.1334 0.649902 11.2584 0.941569 11.2584 1.2749C11.2584 1.60824 11.1334 1.8999 10.8834 2.1499L3.53345 9.4999L10.8834 16.8499C11.1168 17.0832 11.2334 17.3706 11.2334 17.7119C11.2334 18.0539 11.1084 18.3499 10.8584 18.5999C10.6084 18.8499 10.3168 18.9749 9.98345 18.9749C9.65011 18.9749 9.35845 18.8499 9.10845 18.5999Z" fill="black"/>
</svg>
