<svg width="9" height="17" viewBox="0 0 9 17" fill="none" xmlns="http://www.w3.org/2000/svg">
<path d="M7.65885 16.8643C7.93157 16.8648 8.19587 16.7698 8.40587 16.5958C8.52406 16.4978 8.62176 16.3775 8.69337 16.2417C8.76498 16.1059 8.8091 15.9573 8.8232 15.8044C8.83729 15.6515 8.82109 15.4974 8.77551 15.3508C8.72994 15.2042 8.65589 15.068 8.55761 14.95L3.32845 8.69371L8.37085 2.42572C8.46781 2.30632 8.54021 2.16895 8.58391 2.02148C8.6276 1.87401 8.64171 1.71937 8.62544 1.56643C8.60917 1.41349 8.56284 1.26527 8.4891 1.1303C8.41536 0.995322 8.31567 0.876252 8.19577 0.77993C8.075 0.67367 7.93357 0.593519 7.78036 0.544509C7.62715 0.495498 7.46546 0.478686 7.30544 0.495126C7.14542 0.511566 6.99053 0.560904 6.85048 0.640044C6.71044 0.719184 6.58826 0.826417 6.49162 0.955013L0.853931 7.95836C0.682253 8.16721 0.588402 8.42919 0.588402 8.69955C0.588402 8.9699 0.682253 9.23188 0.853931 9.44073L6.69005 16.4441C6.80714 16.5853 6.95589 16.697 7.12421 16.77C7.29254 16.843 7.4757 16.8753 7.65885 16.8643Z" fill="#D0CFCF"/>
</svg>
