<svg width="38" height="39" viewBox="0 0 38 39" fill="none" xmlns="http://www.w3.org/2000/svg">
<rect width="38" height="39" fill="#838383"/>
<path d="M17.5288 27.8723C17.263 27.8728 17.0055 27.7802 16.8009 27.6107C16.6857 27.5152 16.5905 27.3979 16.5208 27.2656C16.451 27.1333 16.408 26.9885 16.3943 26.8396C16.3805 26.6906 16.3963 26.5404 16.4407 26.3975C16.4851 26.2547 16.5573 26.122 16.653 26.0071L21.7481 19.9112L16.835 13.8039C16.7405 13.6876 16.67 13.5537 16.6274 13.41C16.5849 13.2664 16.5711 13.1157 16.587 12.9667C16.6028 12.8176 16.648 12.6732 16.7198 12.5417C16.7916 12.4102 16.8888 12.2942 17.0056 12.2003C17.1233 12.0968 17.2611 12.0187 17.4104 11.9709C17.5596 11.9232 17.7172 11.9068 17.8731 11.9228C18.029 11.9388 18.1799 11.9869 18.3164 12.064C18.4529 12.1411 18.5719 12.2456 18.6661 12.3709L24.1592 19.1947C24.3265 19.3982 24.4179 19.6534 24.4179 19.9169C24.4179 20.1803 24.3265 20.4356 24.1592 20.6391L18.4727 27.4628C18.3586 27.6005 18.2137 27.7093 18.0497 27.7804C17.8857 27.8515 17.7072 27.883 17.5288 27.8723Z" fill="#D0CFCF"/>
</svg>
