<svg width="39" height="39" viewBox="0 0 39 39" fill="none" xmlns="http://www.w3.org/2000/svg">
<rect width="39" height="39" fill="#434343"/>
<path d="M22.6588 26.8643C22.9316 26.8648 23.1959 26.7698 23.4059 26.5958C23.5241 26.4978 23.6218 26.3775 23.6934 26.2417C23.765 26.1059 23.8091 25.9573 23.8232 25.8044C23.8373 25.6515 23.8211 25.4974 23.7755 25.3508C23.7299 25.2042 23.6559 25.068 23.5576 24.95L18.3284 18.6937L23.3709 12.4257C23.4678 12.3063 23.5402 12.1689 23.5839 12.0215C23.6276 11.874 23.6417 11.7194 23.6254 11.5664C23.6092 11.4135 23.5628 11.2653 23.4891 11.1303C23.4154 10.9953 23.3157 10.8763 23.1958 10.7799C23.075 10.6737 22.9336 10.5935 22.7804 10.5445C22.6271 10.4955 22.4655 10.4787 22.3054 10.4951C22.1454 10.5116 21.9905 10.5609 21.8505 10.64C21.7104 10.7192 21.5883 10.8264 21.4916 10.955L15.8539 17.9584C15.6823 18.1672 15.5884 18.4292 15.5884 18.6995C15.5884 18.9699 15.6823 19.2319 15.8539 19.4407L21.6901 26.4441C21.8071 26.5853 21.9559 26.697 22.1242 26.77C22.2925 26.843 22.4757 26.8753 22.6588 26.8643Z" fill="#D0CFCF"/>
</svg>
