<svg width="9" height="15" viewBox="0 0 9 15" fill="none" xmlns="http://www.w3.org/2000/svg">
<path d="M1.27717 14.9981C0.979279 14.9986 0.69059 14.9116 0.461216 14.7522C0.332119 14.6624 0.225406 14.5522 0.147187 14.4278C0.0689677 14.3035 0.0207803 14.1674 0.00538454 14.0273C-0.0100113 13.8873 0.00768725 13.7461 0.057466 13.6118C0.107245 13.4776 0.188125 13.3528 0.295476 13.2448L6.00713 7.51466L0.499465 1.77382C0.393562 1.66447 0.314476 1.53865 0.266753 1.40358C0.219031 1.26852 0.203612 1.12688 0.221384 0.986799C0.239155 0.846722 0.289765 0.710971 0.370307 0.587349C0.450849 0.463727 0.559734 0.354671 0.690703 0.266449C0.822614 0.169126 0.977091 0.0957163 1.14444 0.0508276C1.31179 0.0059389 1.4884 -0.00945949 1.66318 0.00559807C1.83796 0.0206556 2.00715 0.0658444 2.16012 0.138329C2.31309 0.210813 2.44654 0.309027 2.55209 0.426808L8.70997 6.84116C8.89749 7.03244 9 7.27239 9 7.52001C9 7.76763 8.89749 8.00757 8.70997 8.19886L2.33535 14.6132C2.20746 14.7426 2.04499 14.8448 1.86113 14.9117C1.67728 14.9786 1.47721 15.0082 1.27717 14.9981Z" fill="white"/>
</svg>
