<svg width="9" height="15" viewBox="0 0 9 15" fill="none" xmlns="http://www.w3.org/2000/svg">
<path d="M7.72283 14.9981C8.02072 14.9986 8.30941 14.9116 8.53878 14.7522C8.66788 14.6624 8.77459 14.5522 8.85281 14.4278C8.93103 14.3035 8.97922 14.1674 8.99462 14.0273C9.01001 13.8873 8.99231 13.7461 8.94253 13.6118C8.89276 13.4776 8.81188 13.3528 8.70452 13.2448L2.99287 7.51466L8.50054 1.77382C8.60644 1.66447 8.68552 1.53865 8.73325 1.40358C8.78097 1.26852 8.79639 1.12688 8.77862 0.986799C8.76084 0.846722 8.71023 0.710971 8.62969 0.587349C8.54915 0.463727 8.44027 0.354671 8.3093 0.266449C8.17739 0.169126 8.02291 0.0957163 7.85556 0.0508276C7.68821 0.0059389 7.5116 -0.00945949 7.33682 0.00559807C7.16204 0.0206556 6.99285 0.0658444 6.83988 0.138329C6.68691 0.210813 6.55346 0.309027 6.44791 0.426808L0.29003 6.84116C0.102511 7.03244 0 7.27239 0 7.52001C0 7.76763 0.102511 8.00757 0.29003 8.19886L6.66465 14.6132C6.79254 14.7426 6.95501 14.8448 7.13887 14.9117C7.32272 14.9786 7.52279 15.0082 7.72283 14.9981Z" fill="white"/>
</svg>
