<svg width="21" height="14" viewBox="0 0 21 14" fill="none" xmlns="http://www.w3.org/2000/svg">
<path d="M0.00270835 2.3448C0.00202554 1.91451 0.123817 1.49752 0.346945 1.1662C0.472589 0.979727 0.6269 0.825585 0.801035 0.712602C0.975168 0.599619 1.16571 0.530015 1.36174 0.507777C1.55777 0.485538 1.75544 0.511103 1.94343 0.583006C2.13141 0.654908 2.30603 0.771735 2.45726 0.926798L10.4795 9.17697L18.5167 1.22145C18.6697 1.06848 18.8459 0.954243 19.035 0.88531C19.2241 0.816378 19.4224 0.794106 19.6185 0.819776C19.8146 0.845446 20.0046 0.91855 20.1777 1.03489C20.3508 1.15123 20.5035 1.3085 20.627 1.49768C20.7632 1.68822 20.866 1.91135 20.9288 2.15308C20.9917 2.39481 21.0132 2.64991 20.9922 2.90237C20.9711 3.15484 20.9078 3.39922 20.8063 3.62017C20.7049 3.84112 20.5674 4.03388 20.4025 4.18635L11.4224 13.0811C11.1546 13.3519 10.8187 13.5 10.472 13.5C10.1253 13.5 9.7894 13.3519 9.5216 13.0811L0.541515 3.87329C0.36039 3.68855 0.217211 3.45387 0.123596 3.1883C0.0299796 2.92273 -0.0114366 2.63375 0.00270835 2.3448Z" fill="#1EE1B3"/>
</svg>
