<svg width="9" height="16" viewBox="0 0 9 16" fill="none" xmlns="http://www.w3.org/2000/svg">
<path d="M1.93089 15.7686C1.67549 15.7691 1.42797 15.6801 1.23131 15.5172C1.12063 15.4254 1.02913 15.3127 0.962071 15.1855C0.895008 15.0583 0.853693 14.9192 0.840493 14.776C0.827293 14.6328 0.842467 14.4885 0.885146 14.3512C0.927826 14.2139 0.99717 14.0864 1.08921 13.9759L5.98625 8.11694L1.26411 2.24705C1.17331 2.13524 1.1055 2.00658 1.06458 1.86848C1.02367 1.73038 1.01045 1.58556 1.02569 1.44233C1.04092 1.29911 1.08431 1.1603 1.15337 1.0339C1.22242 0.907501 1.31578 0.795993 1.42807 0.705788C1.54117 0.606277 1.67361 0.531218 1.81709 0.48532C1.96057 0.439422 2.112 0.423677 2.26185 0.439074C2.41171 0.45447 2.55676 0.500674 2.68791 0.574788C2.81906 0.648901 2.93348 0.749323 3.02398 0.869752L8.30361 7.42829C8.46438 7.62388 8.55227 7.86922 8.55227 8.12241C8.55227 8.37559 8.46438 8.62093 8.30361 8.81652L2.83816 15.3751C2.7285 15.5073 2.5892 15.6119 2.43157 15.6803C2.27393 15.7487 2.1024 15.7789 1.93089 15.7686Z" fill="#1EE1B3"/>
</svg>
