<svg width="110" height="149" viewBox="0 0 110 149" fill="none" xmlns="http://www.w3.org/2000/svg">
<path d="M55 0.5C60.0516 0.5 64.6266 1.60312 67.7719 3.25C69.3445 4.075 70.5359 5.04063 71.2508 5.925C71.9656 6.80938 72.1562 7.4625 72.1562 8C72.1562 8.5375 71.9656 9.19062 71.2508 10.075C70.5359 10.9594 69.3445 11.925 67.7719 12.75C64.6266 14.3969 60.0516 15.5 55 15.5C49.9484 15.5 45.3734 14.3969 42.2281 12.75C40.6555 11.925 39.4641 10.9594 38.7492 10.075C38.0344 9.19062 37.8437 8.5375 37.8437 8C37.8437 7.4625 38.0344 6.80938 38.7492 5.925C39.4641 5.04063 40.6555 4.075 42.2281 3.25C45.3734 1.60312 49.9484 0.5 55 0.5V0.5ZM72.1562 15.4344V23C72.1562 24.1812 71.8465 25.125 71.0601 26.1875C70.2738 27.2187 69.0109 28.2812 67.3906 29.125C64.6266 30.5625 60.8379 31.4688 56.9062 31.6875V20.4531C61.6242 20.2219 65.8656 19.1344 69.1777 17.3906C70.2738 16.8156 71.2746 16.1719 72.1562 15.4344ZM37.8437 15.4344C38.7254 16.1719 39.7262 16.8156 40.8223 17.3906C44.1344 19.1344 48.3758 20.2219 53.0937 20.4531V31.6875C49.1621 31.4688 45.3734 30.5625 42.6094 29.125C40.9891 28.2812 39.7262 27.2187 38.9398 26.1875C38.1535 25.125 37.8437 24.1812 37.8437 23V15.4344ZM75.9687 18.175C77.7559 18.6437 79.5191 19.1781 81.1871 19.7844C85.3332 21.3 88.9789 23.2781 91.4094 25.5625C93.3394 27.4062 94.4594 29.25 94.8406 31.3437C76.1832 40.2187 66.1516 44.875 56.9062 45.4375V36.6875C61.1953 36.5 65.3891 35.5625 68.8203 33.75C70.7742 32.7187 72.4898 31.4375 73.8004 29.6563C75.0871 27.9063 75.9687 25.5625 75.9687 23V18.175ZM34.0312 18.175V23C34.0312 25.5625 34.9129 27.9063 36.1996 29.6563C37.5101 31.4375 39.2258 32.7187 41.1797 33.75C44.6109 35.5625 48.8047 36.5 53.0937 36.6875V45.4375C43.8484 44.875 33.8168 40.2187 15.1284 31.3437C15.5096 29.2812 16.6534 27.4062 18.5906 25.5625C21.0211 23.2781 24.6668 21.3 28.8129 19.7844C30.4809 19.1781 32.2441 18.6437 34.0312 18.175V18.175ZM95.9367 36.125C98.3672 42.9375 98.7484 46.875 98.7961 50.5938C92.0051 51.125 87.7637 54.3438 80.8297 58.875L79.3523 59.8437V59.875C68.582 62.9687 62.4582 64.6562 56.9062 64.9375V50.4375C66.9141 49.9063 77.3746 45 95.9367 36.125ZM14.0323 36.125C32.6254 45 43.0859 49.9063 53.0937 50.4375V64.9063C47.5418 64.5625 41.418 62.8437 30.6476 59.8437L29.1703 58.875C22.2363 54.3438 17.9949 51.125 11.1729 50.5938C11.2444 46.875 11.6257 42.9375 14.0323 36.125V36.125ZM99.4633 55.5313C100.393 58.5 101.227 60.75 101.417 67.625C99.8207 68.6875 97.6285 69.8125 95.0551 70.9063C92.3625 72.0313 89.2172 73.125 85.8098 74.1875C85.3094 69.6875 84.6898 65.6875 83.975 62.4063C90.1465 58.3125 93.5539 55.8438 99.4633 55.5313V55.5313ZM10.5296 55.5313C16.4151 55.8438 19.8535 58.3125 26.025 62.4063C25.3101 65.6875 24.6906 69.6875 24.1902 74.1875C20.7828 73.125 17.6303 72.0313 14.9139 70.9063C12.3405 69.8125 10.1721 68.6875 8.57566 67.5937C8.74245 60.75 9.57644 58.5 10.5296 55.5313V55.5313ZM29.5039 64.625C40.584 67.6875 47.0891 69.4375 53.0937 69.7812V86.7813C45.8976 86.4375 38.4156 84.2812 27.5262 80.2812C28.0266 74.0625 28.6937 68.7187 29.5039 64.625V64.625ZM80.4961 64.6563C81.3062 68.7188 81.9734 74.0937 82.4738 80.2812C71.5844 84.2812 64.1023 86.4375 56.9062 86.7813V69.8125C62.9109 69.5313 69.416 67.8438 80.4961 64.6563V64.6563ZM102.37 72.5937C103.538 77.1562 104.753 80.7812 105.087 87.9687C100.393 91.6562 94.0305 93.2188 87.1441 94.25C87.0012 88.9062 86.6914 83.8438 86.3101 79.1563C89.9082 78.0313 93.268 76.875 96.2226 75.6562C98.5578 74.6875 100.631 73.6875 102.37 72.5937ZM7.59871 72.5937C9.36199 73.6875 11.435 74.6875 13.7702 75.6562C16.7249 76.875 20.0918 78.0313 23.6898 79.1563C23.3086 83.8438 22.9988 88.9062 22.8559 94.25C15.9624 93.2188 9.57644 91.6562 4.8823 87.9687C5.21589 80.7812 6.43113 77.1562 7.59871 72.5937V72.5937ZM82.8312 85.3438C83.1172 90.0625 83.3078 95.1875 83.3555 100.5C70.5359 104.687 63.4351 107 56.9062 107.375V91.625C64.3883 91.3438 72.1086 89.2187 82.8312 85.3438ZM27.1687 85.3438C37.8914 89.2187 45.6117 91.3438 53.0937 91.625V107.375C46.5648 107 39.4641 104.687 26.6445 100.5C26.6922 95.1875 26.8828 90.0625 27.1687 85.3438V85.3438ZM3.78621 92.9063C9.21902 96.9063 15.8909 98.4062 22.7367 99.3437C22.7129 101.187 22.6891 103.062 22.6891 104.969C22.0934 107.312 21.2355 109.125 19.5676 110.5L19.4723 110.594C15.7479 110.781 11.6733 109.687 8.05144 107.937C5.78777 106.844 3.69089 105.469 2.02292 104.094C1.59402 100.562 2.57097 96.9063 3.78621 92.9063V92.9063ZM106.183 92.9375C107.422 96.9062 108.375 100.562 107.97 104.094C106.302 105.438 104.205 106.844 101.918 107.937C98.3195 109.687 94.2211 110.781 90.5277 110.594L90.4324 110.5C88.7644 109.125 87.9066 107.312 87.3109 104.969C87.3109 103.062 87.2871 101.187 87.2633 99.3437C94.0781 98.4062 100.75 96.9062 106.183 92.9375ZM83.3793 105.656C83.3793 110.094 83.284 114.625 83.0934 119.187C80.4484 117.906 77.9465 116.563 76.0641 115.031C73.8242 113.219 72.5375 111.5 72.2277 109.187C75.4445 108.219 79.1617 107.031 83.3793 105.656ZM26.6207 105.656C30.8383 107.031 34.5555 108.219 37.7723 109.187C37.4625 111.5 36.1758 113.219 33.9359 115.031C32.0535 116.563 29.5516 117.906 26.9066 119.187C26.716 114.625 26.6207 110.094 26.6207 105.656V105.656ZM108.685 109.375L109.971 116.594C105.682 119.219 102.084 121.75 94.3879 121.844L92.4101 115.594C96.1273 115.406 99.8684 114.25 103.252 112.625C105.23 111.656 107.064 110.562 108.685 109.375V109.375ZM1.30808 109.375C2.92839 110.562 4.76316 111.656 6.74089 112.625C10.1007 114.25 13.8655 115.406 17.5827 115.594L15.605 121.844C7.88464 121.75 4.31042 119.219 0.0213623 116.594L1.30808 109.375ZM68.5344 110.219C69.1539 114.156 71.4176 117.156 74.0625 119.281C75.7066 120.625 77.5652 121.719 79.4953 122.719C73.5621 124.875 63.9832 128.031 56.9062 128.562V112.25C60.4328 112.063 64.1023 111.406 68.5344 110.219ZM41.4656 110.219C45.8976 111.406 49.5672 112.063 53.0937 112.25V128.562C46.0168 128.031 36.4379 124.875 30.5047 122.719C32.4348 121.719 34.2934 120.625 35.9375 119.281C38.5824 117.156 40.8461 114.156 41.4656 110.219V110.219ZM82.7121 126.75C82.3785 131.625 81.9496 136.437 81.4016 141.094C71.5367 145.344 64.1262 147.625 56.9062 147.969V133.562C65.6988 133 77.1125 128.938 82.7121 126.75V126.75ZM27.2879 126.75C32.8875 128.938 44.3012 133 53.0937 133.562V147.969C45.8738 147.625 38.4633 145.344 28.5984 141.094C28.0504 136.437 27.6215 131.625 27.2879 126.75V126.75ZM56.5488 148C55.5242 148.031 54.4758 148.031 53.4512 148H56.5488Z" fill="black"/>
</svg>
